<svg width="496" height="496" viewBox="0 0 496 496" fill="none" xmlns="http://www.w3.org/2000/svg">
<g filter="url(#filter0_d_0_739)">
<path d="M38 25C38 18.3726 43.3726 13 50 13H446C452.627 13 458 18.3726 458 25V421C458 427.627 452.627 433 446 433H50C43.3726 433 38 427.627 38 421V25Z" fill="white" fill-opacity="0.01" shape-rendering="crispEdges"/>
<mask id="path-2-inside-1_0_739" fill="white">
<path d="M38 25C38 18.3726 43.3726 13 50 13H446C452.627 13 458 18.3726 458 25V63H38V25Z"/>
</mask>
<path d="M38 25C38 18.3726 43.3726 13 50 13H446C452.627 13 458 18.3726 458 25V63H38V25Z" fill="#111827" fill-opacity="0.95"/>
<path d="M458 63V64H459V63H458ZM38 63H37V64H38V63ZM50 13V14H446V13V12H50V13ZM458 25H457V63H458H459V25H458ZM458 63V62H38V63V64H458V63ZM38 63H39V25H38H37V63H38ZM446 13V14C452.075 14 457 18.9249 457 25H458H459C459 17.8203 453.18 12 446 12V13ZM50 13V12C42.8203 12 37 17.8203 37 25H38H39C39 18.9249 43.9249 14 50 14V13Z" fill="white" fill-opacity="0.1" mask="url(#path-2-inside-1_0_739)"/>
<path d="M60.3333 36.6666H60.34M63 36.6666H63.0067M65.6667 36.6666H65.6733M61 40.6666H58.3333C57.9797 40.6666 57.6406 40.5262 57.3905 40.2761C57.1405 40.0261 57 39.6869 57 39.3333V34C57 33.6463 57.1405 33.3072 57.3905 33.0572C57.6406 32.8071 57.9797 32.6666 58.3333 32.6666H67.6667C68.0203 32.6666 68.3594 32.8071 68.6095 33.0572C68.8595 33.3072 69 33.6463 69 34V39.3333C69 39.6869 68.8595 40.0261 68.6095 40.2761C68.3594 40.5262 68.0203 40.6666 67.6667 40.6666H64.3333L61 44V40.6666Z" stroke="#22D3EE" stroke-width="1.33333" stroke-linecap="round" stroke-linejoin="round"/>
<g clip-path="url(#clip0_0_739)">
<path d="M79.392 42.5L82.99 32.7H84.516L88.114 42.5H86.616L83.746 34.38L80.862 42.5H79.392ZM81.016 40.078L81.408 38.958H86.014L86.406 40.078H81.016ZM89.5103 42.5V32.7H90.9103V42.5H89.5103ZM96.5376 42.5V32.7H102.726V33.848H97.9376V36.984H102.306V38.104H97.9376V41.352H102.726V42.5H96.5376ZM107.602 42.668C106.93 42.668 106.337 42.5093 105.824 42.192C105.31 41.8653 104.909 41.4267 104.62 40.876C104.34 40.316 104.2 39.6813 104.2 38.972C104.2 38.2533 104.34 37.6187 104.62 37.068C104.909 36.5173 105.31 36.0833 105.824 35.766C106.346 35.4393 106.944 35.276 107.616 35.276C108.166 35.276 108.652 35.388 109.072 35.612C109.492 35.8267 109.818 36.1347 110.052 36.536V32.42H111.452V42.5H110.192L110.052 41.408C109.912 41.6227 109.73 41.828 109.506 42.024C109.282 42.2107 109.011 42.3647 108.694 42.486C108.376 42.6073 108.012 42.668 107.602 42.668ZM107.826 41.45C108.264 41.45 108.652 41.3473 108.988 41.142C109.324 40.9367 109.58 40.6473 109.758 40.274C109.944 39.9007 110.038 39.4667 110.038 38.972C110.038 38.4773 109.944 38.048 109.758 37.684C109.58 37.3107 109.324 37.0213 108.988 36.816C108.652 36.6013 108.264 36.494 107.826 36.494C107.406 36.494 107.028 36.6013 106.692 36.816C106.356 37.0213 106.094 37.3107 105.908 37.684C105.721 38.048 105.628 38.4773 105.628 38.972C105.628 39.4667 105.721 39.9007 105.908 40.274C106.094 40.6473 106.356 40.9367 106.692 41.142C107.028 41.3473 107.406 41.45 107.826 41.45ZM113.464 42.5V35.444H114.864V42.5H113.464ZM114.178 34.114C113.907 34.114 113.683 34.03 113.506 33.862C113.338 33.694 113.254 33.4793 113.254 33.218C113.254 32.966 113.338 32.7607 113.506 32.602C113.683 32.434 113.907 32.35 114.178 32.35C114.439 32.35 114.659 32.434 114.836 32.602C115.013 32.7607 115.102 32.966 115.102 33.218C115.102 33.4793 115.013 33.694 114.836 33.862C114.659 34.03 114.439 34.114 114.178 34.114ZM119.778 42.5C119.33 42.5 118.943 42.43 118.616 42.29C118.289 42.15 118.037 41.9167 117.86 41.59C117.683 41.2633 117.594 40.82 117.594 40.26V36.634H116.376V35.444H117.594L117.762 33.68H118.994V35.444H120.996V36.634H118.994V40.274C118.994 40.6753 119.078 40.9507 119.246 41.1C119.414 41.24 119.703 41.31 120.114 41.31H120.926V42.5H119.778ZM125.568 42.668C124.906 42.668 124.308 42.514 123.776 42.206C123.254 41.898 122.838 41.4687 122.53 40.918C122.232 40.358 122.082 39.714 122.082 38.986C122.082 38.2393 122.236 37.5907 122.544 37.04C122.852 36.48 123.272 36.046 123.804 35.738C124.336 35.43 124.934 35.276 125.596 35.276C126.268 35.276 126.866 35.43 127.388 35.738C127.911 36.046 128.322 36.4753 128.62 37.026C128.928 37.5767 129.082 38.2253 129.082 38.972C129.082 39.7187 128.928 40.3673 128.62 40.918C128.322 41.4687 127.906 41.898 127.374 42.206C126.842 42.514 126.24 42.668 125.568 42.668ZM125.568 41.464C125.951 41.464 126.296 41.3707 126.604 41.184C126.922 40.9973 127.174 40.722 127.36 40.358C127.556 39.9847 127.654 39.5227 127.654 38.972C127.654 38.4213 127.561 37.964 127.374 37.6C127.188 37.2267 126.936 36.9467 126.618 36.76C126.31 36.5733 125.97 36.48 125.596 36.48C125.223 36.48 124.878 36.5733 124.56 36.76C124.243 36.9467 123.986 37.2267 123.79 37.6C123.604 37.964 123.51 38.4213 123.51 38.972C123.51 39.5227 123.604 39.9847 123.79 40.358C123.986 40.722 124.238 40.9973 124.546 41.184C124.864 41.3707 125.204 41.464 125.568 41.464ZM130.729 42.5V35.444H131.989L132.115 36.774C132.274 36.4567 132.479 36.1907 132.731 35.976C132.983 35.752 133.277 35.5793 133.613 35.458C133.959 35.3367 134.351 35.276 134.789 35.276V36.76H134.285C133.996 36.76 133.721 36.7973 133.459 36.872C133.198 36.9373 132.965 37.054 132.759 37.222C132.563 37.39 132.409 37.6187 132.297 37.908C132.185 38.1973 132.129 38.5567 132.129 38.986V42.5H130.729Z" fill="#9BA3B4"/>
</g>
<path d="M399.667 32.75H397.917C397.607 32.75 397.311 32.8729 397.092 33.0917C396.873 33.3105 396.75 33.6072 396.75 33.9167V35.6667M407.25 35.6667V33.9167C407.25 33.6072 407.127 33.3105 406.908 33.0917C406.689 32.8729 406.393 32.75 406.083 32.75H404.333M404.333 43.25H406.083C406.393 43.25 406.689 43.1271 406.908 42.9083C407.127 42.6895 407.25 42.3928 407.25 42.0833V40.3333M396.75 40.3333V42.0833C396.75 42.3928 396.873 42.6895 397.092 42.9083C397.311 43.1271 397.607 43.25 397.917 43.25H399.667" stroke="#6B7280" stroke-width="1.16667" stroke-linecap="round" stroke-linejoin="round"/>
<path d="M434.333 38H423.667" stroke="#6B7280" stroke-width="1.33333" stroke-linecap="round" stroke-linejoin="round"/>
<mask id="path-10-inside-2_0_739" fill="white">
<path d="M38 63H458V421C458 427.627 452.627 433 446 433H50C43.3726 433 38 427.627 38 421V63Z"/>
</mask>
<path d="M38 63H458V421C458 427.627 452.627 433 446 433H50C43.3726 433 38 427.627 38 421V63Z" fill="#111827" fill-opacity="0.95"/>
<path d="M38 63H458H38ZM459 421C459 428.18 453.18 434 446 434H50C42.8203 434 37 428.18 37 421H39C39 427.075 43.9249 432 50 432H446C452.075 432 457 427.075 457 421H459ZM50 434C42.8203 434 37 428.18 37 421V63H39V421C39 427.075 43.9249 432 50 432V434ZM459 63V421C459 428.18 453.18 434 446 434V432C452.075 432 457 427.075 457 421V63H459Z" fill="white" fill-opacity="0.1" mask="url(#path-10-inside-2_0_739)"/>
<g filter="url(#filter1_dd_0_739)">
<g clip-path="url(#clip1_0_739)">
<mask id="path-12-inside-3_0_739" fill="white">
<path d="M101.18 91C101.18 84.3726 106.552 79 113.18 79H382.82C389.448 79 394.82 84.3726 394.82 91V117C394.82 123.627 389.448 129 382.82 129H113.18C106.552 129 101.18 123.627 101.18 117V91Z"/>
</mask>
<path d="M101.18 91C101.18 84.3726 106.552 79 113.18 79H382.82C389.448 79 394.82 84.3726 394.82 91V117C394.82 123.627 389.448 129 382.82 129H113.18C106.552 129 101.18 123.627 101.18 117V91Z" fill="#1A2030" fill-opacity="0.7" shape-rendering="crispEdges"/>
<g filter="url(#filter2_dd_0_739)">
<path d="M106.18 92C106.18 87.5817 109.761 84 114.18 84H229.977C234.395 84 237.977 87.5817 237.977 92V116C237.977 120.418 234.395 124 229.977 124H114.18C109.761 124 106.18 120.418 106.18 116V92Z" fill="url(#paint0_linear_0_739)" shape-rendering="crispEdges"/>
<path d="M134.846 97.3334L128.18 105.333H133.513L132.846 110.667L139.513 102.667H134.18L134.846 97.3334Z" fill="white"/>
<path d="M158.232 109.9L154.858 104.594H156.468L159.87 109.9H158.232ZM155.712 108.668C154.77 108.668 153.939 108.458 153.22 108.038C152.511 107.609 151.951 107.016 151.54 106.26C151.139 105.495 150.938 104.608 150.938 103.6C150.938 102.601 151.139 101.724 151.54 100.968C151.951 100.203 152.511 99.6053 153.22 99.176C153.939 98.7467 154.77 98.532 155.712 98.532C156.674 98.532 157.514 98.7467 158.232 99.176C158.951 99.6053 159.506 100.203 159.898 100.968C160.3 101.724 160.5 102.601 160.5 103.6C160.5 104.608 160.3 105.495 159.898 106.26C159.506 107.016 158.951 107.609 158.232 108.038C157.514 108.458 156.674 108.668 155.712 108.668ZM155.726 107.422C156.398 107.422 156.986 107.268 157.49 106.96C157.994 106.652 158.382 106.213 158.652 105.644C158.932 105.075 159.072 104.393 159.072 103.6C159.072 102.807 158.932 102.125 158.652 101.556C158.382 100.987 157.994 100.553 157.49 100.254C156.986 99.946 156.398 99.792 155.726 99.792C155.054 99.792 154.466 99.946 153.962 100.254C153.458 100.553 153.066 100.987 152.786 101.556C152.506 102.125 152.366 102.807 152.366 103.6C152.366 104.393 152.506 105.075 152.786 105.644C153.066 106.213 153.458 106.652 153.962 106.96C154.466 107.268 155.054 107.422 155.726 107.422ZM164.705 108.668C164.154 108.668 163.674 108.556 163.263 108.332C162.862 108.108 162.549 107.772 162.325 107.324C162.11 106.876 162.003 106.311 162.003 105.63V101.444H163.403V105.476C163.403 106.139 163.548 106.638 163.837 106.974C164.126 107.31 164.542 107.478 165.083 107.478C165.447 107.478 165.774 107.389 166.063 107.212C166.362 107.035 166.595 106.778 166.763 106.442C166.931 106.106 167.015 105.695 167.015 105.21V101.444H168.415V108.5H167.169L167.071 107.296C166.856 107.725 166.544 108.061 166.133 108.304C165.722 108.547 165.246 108.668 164.705 108.668ZM170.43 108.5V101.444H171.83V108.5H170.43ZM171.144 100.114C170.873 100.114 170.649 100.03 170.472 99.862C170.304 99.694 170.22 99.4793 170.22 99.218C170.22 98.966 170.304 98.7607 170.472 98.602C170.649 98.434 170.873 98.35 171.144 98.35C171.405 98.35 171.625 98.434 171.802 98.602C171.979 98.7607 172.068 98.966 172.068 99.218C172.068 99.4793 171.979 99.694 171.802 99.862C171.625 100.03 171.405 100.114 171.144 100.114ZM177.094 108.668C176.413 108.668 175.806 108.514 175.274 108.206C174.742 107.889 174.322 107.455 174.014 106.904C173.715 106.353 173.566 105.714 173.566 104.986C173.566 104.249 173.715 103.605 174.014 103.054C174.322 102.494 174.742 102.06 175.274 101.752C175.806 101.435 176.413 101.276 177.094 101.276C177.953 101.276 178.671 101.5 179.25 101.948C179.829 102.396 180.197 103.003 180.356 103.768H178.9C178.807 103.357 178.592 103.04 178.256 102.816C177.929 102.592 177.537 102.48 177.08 102.48C176.707 102.48 176.361 102.578 176.044 102.774C175.727 102.961 175.47 103.241 175.274 103.614C175.087 103.978 174.994 104.431 174.994 104.972C174.994 105.373 175.05 105.733 175.162 106.05C175.274 106.358 175.423 106.619 175.61 106.834C175.806 107.049 176.03 107.212 176.282 107.324C176.534 107.427 176.8 107.478 177.08 107.478C177.388 107.478 177.663 107.431 177.906 107.338C178.158 107.235 178.368 107.086 178.536 106.89C178.713 106.694 178.835 106.461 178.9 106.19H180.356C180.197 106.937 179.829 107.539 179.25 107.996C178.671 108.444 177.953 108.668 177.094 108.668ZM186.432 108.5L183.184 104.636L186.124 101.444H187.818L184.318 105.182V104.132L188.196 108.5H186.432ZM181.994 108.5V98.42H183.394V108.5H181.994ZM193.029 108.5V98.7H199.217V99.848H194.429V102.984H198.797V104.104H194.429V107.352H199.217V108.5H193.029ZM204.093 108.668C203.421 108.668 202.828 108.509 202.315 108.192C201.802 107.865 201.4 107.427 201.111 106.876C200.831 106.316 200.691 105.681 200.691 104.972C200.691 104.253 200.831 103.619 201.111 103.068C201.4 102.517 201.802 102.083 202.315 101.766C202.838 101.439 203.435 101.276 204.107 101.276C204.658 101.276 205.143 101.388 205.563 101.612C205.983 101.827 206.31 102.135 206.543 102.536V98.42H207.943V108.5H206.683L206.543 107.408C206.403 107.623 206.221 107.828 205.997 108.024C205.773 108.211 205.502 108.365 205.185 108.486C204.868 108.607 204.504 108.668 204.093 108.668ZM204.317 107.45C204.756 107.45 205.143 107.347 205.479 107.142C205.815 106.937 206.072 106.647 206.249 106.274C206.436 105.901 206.529 105.467 206.529 104.972C206.529 104.477 206.436 104.048 206.249 103.684C206.072 103.311 205.815 103.021 205.479 102.816C205.143 102.601 204.756 102.494 204.317 102.494C203.897 102.494 203.519 102.601 203.183 102.816C202.847 103.021 202.586 103.311 202.399 103.684C202.212 104.048 202.119 104.477 202.119 104.972C202.119 105.467 202.212 105.901 202.399 106.274C202.586 106.647 202.847 106.937 203.183 107.142C203.519 107.347 203.897 107.45 204.317 107.45ZM209.955 108.5V101.444H211.355V108.5H209.955ZM210.669 100.114C210.399 100.114 210.175 100.03 209.997 99.862C209.829 99.694 209.745 99.4793 209.745 99.218C209.745 98.966 209.829 98.7607 209.997 98.602C210.175 98.434 210.399 98.35 210.669 98.35C210.931 98.35 211.15 98.434 211.327 98.602C211.505 98.7607 211.593 98.966 211.593 99.218C211.593 99.4793 211.505 99.694 211.327 99.862C211.15 100.03 210.931 100.114 210.669 100.114ZM216.269 108.5C215.821 108.5 215.434 108.43 215.107 108.29C214.781 108.15 214.529 107.917 214.351 107.59C214.174 107.263 214.085 106.82 214.085 106.26V102.634H212.867V101.444H214.085L214.253 99.68H215.485V101.444H217.487V102.634H215.485V106.274C215.485 106.675 215.569 106.951 215.737 107.1C215.905 107.24 216.195 107.31 216.605 107.31H217.417V108.5H216.269Z" fill="white"/>
</g>
<path d="M271.31 97.3334H260.643C259.91 97.3334 259.31 97.9334 259.31 98.6667V110.667L261.977 108H271.31C272.043 108 272.643 107.4 272.643 106.667V98.6667C272.643 97.9334 272.043 97.3334 271.31 97.3334Z" fill="#9BA3B4"/>
<path d="M287.376 108.668C286.414 108.668 285.584 108.458 284.884 108.038C284.193 107.609 283.656 107.016 283.274 106.26C282.9 105.495 282.714 104.608 282.714 103.6C282.714 102.601 282.9 101.719 283.274 100.954C283.656 100.189 284.193 99.596 284.884 99.176C285.584 98.7467 286.414 98.532 287.376 98.532C288.524 98.532 289.452 98.8073 290.162 99.358C290.88 99.9087 291.338 100.683 291.534 101.682H289.994C289.854 101.103 289.564 100.641 289.126 100.296C288.696 99.9507 288.113 99.778 287.376 99.778C286.713 99.778 286.139 99.932 285.654 100.24C285.168 100.548 284.795 100.987 284.534 101.556C284.272 102.125 284.142 102.807 284.142 103.6C284.142 104.393 284.272 105.079 284.534 105.658C284.795 106.227 285.168 106.666 285.654 106.974C286.139 107.273 286.713 107.422 287.376 107.422C288.113 107.422 288.696 107.259 289.126 106.932C289.564 106.596 289.854 106.143 289.994 105.574H291.534C291.338 106.545 290.88 107.305 290.162 107.856C289.452 108.397 288.524 108.668 287.376 108.668ZM296.359 108.668C295.696 108.668 295.099 108.514 294.567 108.206C294.044 107.898 293.629 107.469 293.321 106.918C293.022 106.358 292.873 105.714 292.873 104.986C292.873 104.239 293.027 103.591 293.335 103.04C293.643 102.48 294.063 102.046 294.595 101.738C295.127 101.43 295.724 101.276 296.387 101.276C297.059 101.276 297.656 101.43 298.179 101.738C298.701 102.046 299.112 102.475 299.411 103.026C299.719 103.577 299.873 104.225 299.873 104.972C299.873 105.719 299.719 106.367 299.411 106.918C299.112 107.469 298.697 107.898 298.165 108.206C297.633 108.514 297.031 108.668 296.359 108.668ZM296.359 107.464C296.741 107.464 297.087 107.371 297.395 107.184C297.712 106.997 297.964 106.722 298.151 106.358C298.347 105.985 298.445 105.523 298.445 104.972C298.445 104.421 298.351 103.964 298.165 103.6C297.978 103.227 297.726 102.947 297.409 102.76C297.101 102.573 296.76 102.48 296.387 102.48C296.013 102.48 295.668 102.573 295.351 102.76C295.033 102.947 294.777 103.227 294.581 103.6C294.394 103.964 294.301 104.421 294.301 104.972C294.301 105.523 294.394 105.985 294.581 106.358C294.777 106.722 295.029 106.997 295.337 107.184C295.654 107.371 295.995 107.464 296.359 107.464ZM301.519 108.5V101.444H302.779L302.863 102.648C303.087 102.228 303.405 101.897 303.815 101.654C304.226 101.402 304.697 101.276 305.229 101.276C305.789 101.276 306.27 101.388 306.671 101.612C307.073 101.836 307.385 102.177 307.609 102.634C307.833 103.082 307.945 103.647 307.945 104.328V108.5H306.545V104.468C306.545 103.815 306.401 103.32 306.111 102.984C305.822 102.648 305.402 102.48 304.851 102.48C304.487 102.48 304.161 102.569 303.871 102.746C303.582 102.914 303.349 103.166 303.171 103.502C303.003 103.838 302.919 104.249 302.919 104.734V108.5H301.519ZM311.629 108.5L308.983 101.444H310.453L312.455 107.156L314.471 101.444H315.913L313.281 108.5H311.629ZM320.024 108.668C319.352 108.668 318.755 108.514 318.232 108.206C317.709 107.898 317.299 107.469 317 106.918C316.711 106.367 316.566 105.728 316.566 105C316.566 104.253 316.711 103.605 317 103.054C317.299 102.494 317.709 102.06 318.232 101.752C318.755 101.435 319.361 101.276 320.052 101.276C320.743 101.276 321.335 101.43 321.83 101.738C322.325 102.046 322.707 102.457 322.978 102.97C323.249 103.474 323.384 104.034 323.384 104.65C323.384 104.743 323.379 104.846 323.37 104.958C323.37 105.061 323.365 105.177 323.356 105.308H317.588V104.314H321.984C321.956 103.726 321.76 103.269 321.396 102.942C321.032 102.606 320.579 102.438 320.038 102.438C319.655 102.438 319.305 102.527 318.988 102.704C318.671 102.872 318.414 103.124 318.218 103.46C318.031 103.787 317.938 104.202 317.938 104.706V105.098C317.938 105.621 318.031 106.064 318.218 106.428C318.414 106.783 318.671 107.053 318.988 107.24C319.305 107.417 319.651 107.506 320.024 107.506C320.472 107.506 320.841 107.408 321.13 107.212C321.419 107.016 321.634 106.75 321.774 106.414H323.174C323.053 106.843 322.847 107.231 322.558 107.576C322.269 107.912 321.909 108.178 321.48 108.374C321.06 108.57 320.575 108.668 320.024 108.668ZM324.939 108.5V101.444H326.199L326.325 102.774C326.484 102.457 326.689 102.191 326.941 101.976C327.193 101.752 327.487 101.579 327.823 101.458C328.169 101.337 328.561 101.276 328.999 101.276V102.76H328.495C328.206 102.76 327.931 102.797 327.669 102.872C327.408 102.937 327.175 103.054 326.969 103.222C326.773 103.39 326.619 103.619 326.507 103.908C326.395 104.197 326.339 104.557 326.339 104.986V108.5H324.939ZM333.015 108.668C332.418 108.668 331.895 108.57 331.447 108.374C330.999 108.178 330.644 107.903 330.383 107.548C330.122 107.193 329.963 106.778 329.907 106.302H331.335C331.382 106.526 331.47 106.731 331.601 106.918C331.741 107.105 331.928 107.254 332.161 107.366C332.404 107.478 332.688 107.534 333.015 107.534C333.323 107.534 333.575 107.492 333.771 107.408C333.976 107.315 334.126 107.193 334.219 107.044C334.312 106.885 334.359 106.717 334.359 106.54C334.359 106.279 334.294 106.083 334.163 105.952C334.042 105.812 333.855 105.705 333.603 105.63C333.36 105.546 333.066 105.471 332.721 105.406C332.394 105.35 332.077 105.275 331.769 105.182C331.47 105.079 331.2 104.953 330.957 104.804C330.724 104.655 330.537 104.468 330.397 104.244C330.257 104.011 330.187 103.726 330.187 103.39C330.187 102.989 330.294 102.629 330.509 102.312C330.724 101.985 331.027 101.733 331.419 101.556C331.82 101.369 332.292 101.276 332.833 101.276C333.617 101.276 334.247 101.463 334.723 101.836C335.199 102.209 335.479 102.737 335.563 103.418H334.205C334.168 103.101 334.028 102.858 333.785 102.69C333.542 102.513 333.22 102.424 332.819 102.424C332.418 102.424 332.11 102.503 331.895 102.662C331.68 102.821 331.573 103.031 331.573 103.292C331.573 103.46 331.634 103.609 331.755 103.74C331.876 103.871 332.054 103.983 332.287 104.076C332.53 104.16 332.824 104.239 333.169 104.314C333.664 104.407 334.107 104.524 334.499 104.664C334.891 104.804 335.204 105.009 335.437 105.28C335.67 105.551 335.787 105.938 335.787 106.442C335.796 106.881 335.684 107.268 335.451 107.604C335.227 107.94 334.905 108.201 334.485 108.388C334.074 108.575 333.584 108.668 333.015 108.668ZM339.773 108.668C339.195 108.668 338.714 108.57 338.331 108.374C337.949 108.178 337.664 107.917 337.477 107.59C337.291 107.254 337.197 106.895 337.197 106.512C337.197 106.045 337.319 105.649 337.561 105.322C337.804 104.986 338.149 104.729 338.597 104.552C339.045 104.375 339.582 104.286 340.207 104.286H342.041C342.041 103.875 341.981 103.535 341.859 103.264C341.738 102.993 341.556 102.793 341.313 102.662C341.08 102.522 340.781 102.452 340.417 102.452C339.997 102.452 339.638 102.555 339.339 102.76C339.041 102.956 338.854 103.25 338.779 103.642H337.379C337.435 103.147 337.603 102.727 337.883 102.382C338.173 102.027 338.541 101.757 338.989 101.57C339.437 101.374 339.913 101.276 340.417 101.276C341.08 101.276 341.635 101.393 342.083 101.626C342.531 101.859 342.867 102.191 343.091 102.62C343.325 103.04 343.441 103.544 343.441 104.132V108.5H342.223L342.111 107.31C342.009 107.497 341.887 107.674 341.747 107.842C341.607 108.01 341.439 108.155 341.243 108.276C341.057 108.397 340.837 108.491 340.585 108.556C340.343 108.631 340.072 108.668 339.773 108.668ZM340.039 107.534C340.338 107.534 340.609 107.473 340.851 107.352C341.094 107.231 341.299 107.067 341.467 106.862C341.645 106.647 341.775 106.409 341.859 106.148C341.953 105.877 342.004 105.602 342.013 105.322V105.28H340.347C339.946 105.28 339.619 105.331 339.367 105.434C339.125 105.527 338.947 105.658 338.835 105.826C338.723 105.994 338.667 106.19 338.667 106.414C338.667 106.647 338.719 106.848 338.821 107.016C338.933 107.175 339.092 107.301 339.297 107.394C339.503 107.487 339.75 107.534 340.039 107.534ZM347.99 108.5C347.542 108.5 347.155 108.43 346.828 108.29C346.501 108.15 346.249 107.917 346.072 107.59C345.895 107.263 345.806 106.82 345.806 106.26V102.634H344.588V101.444H345.806L345.974 99.68H347.206V101.444H349.208V102.634H347.206V106.274C347.206 106.675 347.29 106.951 347.458 107.1C347.626 107.24 347.915 107.31 348.326 107.31H349.138V108.5H347.99ZM350.85 108.5V101.444H352.25V108.5H350.85ZM351.564 100.114C351.293 100.114 351.069 100.03 350.892 99.862C350.724 99.694 350.64 99.4793 350.64 99.218C350.64 98.966 350.724 98.7607 350.892 98.602C351.069 98.434 351.293 98.35 351.564 98.35C351.825 98.35 352.044 98.434 352.222 98.602C352.399 98.7607 352.488 98.966 352.488 99.218C352.488 99.4793 352.399 99.694 352.222 99.862C352.044 100.03 351.825 100.114 351.564 100.114ZM357.472 108.668C356.809 108.668 356.212 108.514 355.68 108.206C355.157 107.898 354.742 107.469 354.434 106.918C354.135 106.358 353.986 105.714 353.986 104.986C353.986 104.239 354.14 103.591 354.448 103.04C354.756 102.48 355.176 102.046 355.708 101.738C356.24 101.43 356.837 101.276 357.5 101.276C358.172 101.276 358.769 101.43 359.292 101.738C359.814 102.046 360.225 102.475 360.524 103.026C360.832 103.577 360.986 104.225 360.986 104.972C360.986 105.719 360.832 106.367 360.524 106.918C360.225 107.469 359.81 107.898 359.278 108.206C358.746 108.514 358.144 108.668 357.472 108.668ZM357.472 107.464C357.854 107.464 358.2 107.371 358.508 107.184C358.825 106.997 359.077 106.722 359.264 106.358C359.46 105.985 359.558 105.523 359.558 104.972C359.558 104.421 359.464 103.964 359.278 103.6C359.091 103.227 358.839 102.947 358.522 102.76C358.214 102.573 357.873 102.48 357.5 102.48C357.126 102.48 356.781 102.573 356.464 102.76C356.146 102.947 355.89 103.227 355.694 103.6C355.507 103.964 355.414 104.421 355.414 104.972C355.414 105.523 355.507 105.985 355.694 106.358C355.89 106.722 356.142 106.997 356.45 107.184C356.767 107.371 357.108 107.464 357.472 107.464ZM362.633 108.5V101.444H363.893L363.977 102.648C364.201 102.228 364.518 101.897 364.929 101.654C365.339 101.402 365.811 101.276 366.343 101.276C366.903 101.276 367.383 101.388 367.785 101.612C368.186 101.836 368.499 102.177 368.723 102.634C368.947 103.082 369.059 103.647 369.059 104.328V108.5H367.659V104.468C367.659 103.815 367.514 103.32 367.225 102.984C366.935 102.648 366.515 102.48 365.965 102.48C365.601 102.48 365.274 102.569 364.985 102.746C364.695 102.914 364.462 103.166 364.285 103.502C364.117 103.838 364.033 104.249 364.033 104.734V108.5H362.633Z" fill="#9BA3B4"/>
</g>
<path d="M113.18 79V80H382.82V79V78H113.18V79ZM394.82 91H393.82V117H394.82H395.82V91H394.82ZM382.82 129V128H113.18V129V130H382.82V129ZM101.18 117H102.18V91H101.18H100.18V117H101.18ZM113.18 129V128C107.105 128 102.18 123.075 102.18 117H101.18H100.18C100.18 124.18 106 130 113.18 130V129ZM394.82 117H393.82C393.82 123.075 388.895 128 382.82 128V129V130C390 130 395.82 124.18 395.82 117H394.82ZM382.82 79V80C388.895 80 393.82 84.9249 393.82 91H394.82H395.82C395.82 83.8203 390 78 382.82 78V79ZM113.18 79V78C106 78 100.18 83.8203 100.18 91H101.18H102.18C102.18 84.9249 107.105 80 113.18 80V79Z" fill="white" fill-opacity="0.08" mask="url(#path-12-inside-3_0_739)"/>
</g>
<path d="M91 191.13C95.6023 191.13 99.3333 187.399 99.3333 182.797C99.3333 178.194 95.6023 174.464 91 174.464C86.3976 174.464 82.6666 178.194 82.6666 182.797C82.6666 187.399 86.3976 191.13 91 191.13Z" stroke="#6B7280" stroke-width="1.66667"/>
<path d="M89.4483 186.297V179.933H91.2132V186.297H89.4483ZM90.3349 179.113C90.0725 179.113 89.8474 179.026 89.6596 178.852C89.4746 178.675 89.382 178.464 89.382 178.218C89.382 177.975 89.4746 177.766 89.6596 177.592C89.8474 177.416 90.0725 177.327 90.3349 177.327C90.5973 177.327 90.821 177.416 91.0061 177.592C91.1939 177.766 91.2878 177.975 91.2878 178.218C91.2878 178.464 91.1939 178.675 91.0061 178.852C90.821 179.026 90.5973 179.113 90.3349 179.113Z" fill="#6B7280"/>
<g clip-path="url(#clip2_0_739)">
<mask id="path-24-inside-4_0_739" fill="white">
<path d="M123 169C123 162.373 128.373 157 135 157H271C277.627 157 283 162.373 283 169V196.594C283 203.221 277.627 208.594 271 208.594H135C128.373 208.594 123 203.221 123 196.594V169Z"/>
</mask>
<path d="M123 169C123 162.373 128.373 157 135 157H271C277.627 157 283 162.373 283 169V196.594C283 203.221 277.627 208.594 271 208.594H135C128.373 208.594 123 203.221 123 196.594V169Z" fill="#131824"/>
<path d="M144.2 188.297V177.097H147.528C148.829 177.097 149.907 177.326 150.76 177.785C151.613 178.233 152.243 178.878 152.648 179.721C153.064 180.553 153.272 181.556 153.272 182.729C153.272 183.881 153.064 184.873 152.648 185.705C152.243 186.537 151.613 187.177 150.76 187.625C149.907 188.073 148.829 188.297 147.528 188.297H144.2ZM145.544 187.177H147.496C148.573 187.177 149.432 187.001 150.072 186.649C150.723 186.286 151.187 185.774 151.464 185.113C151.741 184.441 151.88 183.646 151.88 182.729C151.88 181.79 151.741 180.985 151.464 180.313C151.187 179.641 150.723 179.124 150.072 178.761C149.432 178.398 148.573 178.217 147.496 178.217H145.544V187.177ZM158.703 188.489C157.956 188.489 157.29 188.313 156.703 187.961C156.116 187.609 155.652 187.118 155.311 186.489C154.98 185.86 154.815 185.124 154.815 184.281C154.815 183.428 154.98 182.692 155.311 182.073C155.642 181.444 156.1 180.953 156.687 180.601C157.284 180.249 157.967 180.073 158.735 180.073C159.524 180.073 160.196 180.249 160.751 180.601C161.306 180.953 161.727 181.412 162.015 181.977C162.314 182.542 162.463 183.166 162.463 183.849C162.463 183.956 162.463 184.068 162.463 184.185C162.463 184.302 162.458 184.436 162.447 184.585H155.823V183.545H161.135C161.103 182.809 160.858 182.238 160.399 181.833C159.951 181.417 159.386 181.209 158.703 181.209C158.255 181.209 157.834 181.316 157.439 181.529C157.044 181.732 156.724 182.03 156.479 182.425C156.244 182.82 156.127 183.316 156.127 183.913V184.361C156.127 185.022 156.25 185.577 156.495 186.025C156.74 186.462 157.055 186.793 157.439 187.017C157.834 187.241 158.255 187.353 158.703 187.353C159.268 187.353 159.732 187.23 160.095 186.985C160.468 186.729 160.74 186.382 160.911 185.945H162.239C162.1 186.436 161.871 186.873 161.551 187.257C161.231 187.63 160.831 187.929 160.351 188.153C159.882 188.377 159.332 188.489 158.703 188.489ZM167.285 188.489C166.634 188.489 166.058 188.382 165.557 188.169C165.055 187.945 164.655 187.63 164.357 187.225C164.069 186.82 163.887 186.345 163.813 185.801H165.189C165.253 186.078 165.37 186.34 165.541 186.585C165.711 186.82 165.941 187.006 166.229 187.145C166.527 187.284 166.885 187.353 167.301 187.353C167.685 187.353 167.999 187.3 168.245 187.193C168.49 187.076 168.671 186.921 168.789 186.729C168.906 186.537 168.965 186.329 168.965 186.105C168.965 185.785 168.885 185.54 168.725 185.369C168.575 185.198 168.351 185.065 168.053 184.969C167.754 184.862 167.397 184.772 166.981 184.697C166.629 184.633 166.282 184.548 165.941 184.441C165.61 184.334 165.311 184.196 165.045 184.025C164.778 183.854 164.565 183.641 164.405 183.385C164.245 183.118 164.165 182.804 164.165 182.441C164.165 181.982 164.282 181.577 164.517 181.225C164.762 180.862 165.098 180.58 165.525 180.377C165.962 180.174 166.479 180.073 167.077 180.073C167.93 180.073 168.623 180.281 169.157 180.697C169.701 181.113 170.015 181.716 170.101 182.505H168.773C168.73 182.1 168.559 181.785 168.261 181.561C167.962 181.326 167.562 181.209 167.061 181.209C166.559 181.209 166.175 181.31 165.909 181.513C165.653 181.716 165.525 181.982 165.525 182.313C165.525 182.526 165.594 182.713 165.733 182.873C165.882 183.033 166.101 183.172 166.389 183.289C166.677 183.396 167.023 183.492 167.429 183.577C167.951 183.673 168.431 183.801 168.869 183.961C169.306 184.121 169.658 184.356 169.925 184.665C170.202 184.974 170.341 185.417 170.341 185.993C170.351 186.494 170.229 186.932 169.973 187.305C169.727 187.678 169.375 187.972 168.917 188.185C168.458 188.388 167.914 188.489 167.285 188.489ZM175.924 188.489C175.167 188.489 174.484 188.313 173.876 187.961C173.279 187.609 172.804 187.118 172.452 186.489C172.111 185.86 171.94 185.124 171.94 184.281C171.94 183.438 172.111 182.702 172.452 182.073C172.804 181.444 173.279 180.953 173.876 180.601C174.484 180.249 175.167 180.073 175.924 180.073C176.884 180.073 177.684 180.324 178.324 180.825C178.964 181.316 179.369 181.977 179.54 182.809H178.164C178.057 182.308 177.796 181.918 177.38 181.641C176.964 181.364 176.473 181.225 175.908 181.225C175.449 181.225 175.023 181.342 174.628 181.577C174.244 181.801 173.929 182.142 173.684 182.601C173.439 183.049 173.316 183.609 173.316 184.281C173.316 184.782 173.385 185.225 173.524 185.609C173.673 185.993 173.865 186.318 174.1 186.585C174.335 186.841 174.607 187.033 174.916 187.161C175.236 187.289 175.567 187.353 175.908 187.353C176.292 187.353 176.639 187.294 176.948 187.177C177.257 187.049 177.519 186.868 177.732 186.633C177.945 186.388 178.089 186.094 178.164 185.753H179.54C179.369 186.574 178.959 187.236 178.308 187.737C177.668 188.238 176.873 188.489 175.924 188.489ZM181.417 188.297V180.265H182.633L182.745 181.801C182.926 181.438 183.155 181.129 183.433 180.873C183.721 180.617 184.062 180.42 184.457 180.281C184.851 180.142 185.299 180.073 185.801 180.073V181.481H185.337C184.995 181.481 184.67 181.529 184.361 181.625C184.051 181.71 183.774 181.854 183.529 182.057C183.294 182.249 183.107 182.521 182.969 182.873C182.83 183.225 182.761 183.657 182.761 184.169V188.297H181.417ZM187.451 188.297V180.265H188.795V188.297H187.451ZM188.123 178.537C187.856 178.537 187.632 178.452 187.451 178.281C187.28 178.1 187.195 177.876 187.195 177.609C187.195 177.342 187.28 177.129 187.451 176.969C187.632 176.798 187.856 176.713 188.123 176.713C188.379 176.713 188.598 176.798 188.779 176.969C188.96 177.129 189.051 177.342 189.051 177.609C189.051 177.876 188.96 178.1 188.779 178.281C188.598 178.452 188.379 178.537 188.123 178.537ZM195.375 188.489C194.917 188.489 194.501 188.425 194.127 188.297C193.765 188.169 193.445 187.993 193.167 187.769C192.89 187.534 192.661 187.268 192.479 186.969L192.351 188.297H191.135V176.777H192.479V181.577C192.735 181.172 193.103 180.82 193.583 180.521C194.063 180.222 194.661 180.073 195.375 180.073C196.165 180.073 196.847 180.254 197.423 180.617C198.01 180.98 198.463 181.481 198.783 182.121C199.114 182.75 199.279 183.47 199.279 184.281C199.279 185.092 199.114 185.817 198.783 186.457C198.463 187.086 198.01 187.582 197.423 187.945C196.837 188.308 196.154 188.489 195.375 188.489ZM195.215 187.321C195.749 187.321 196.218 187.198 196.623 186.953C197.029 186.697 197.343 186.34 197.567 185.881C197.802 185.422 197.919 184.889 197.919 184.281C197.919 183.673 197.802 183.14 197.567 182.681C197.343 182.222 197.029 181.87 196.623 181.625C196.218 181.369 195.749 181.241 195.215 181.241C194.682 181.241 194.213 181.369 193.807 181.625C193.402 181.87 193.087 182.222 192.863 182.681C192.639 183.14 192.527 183.673 192.527 184.281C192.527 184.889 192.639 185.422 192.863 185.881C193.087 186.34 193.402 186.697 193.807 186.953C194.213 187.198 194.682 187.321 195.215 187.321ZM204.719 188.489C203.972 188.489 203.305 188.313 202.719 187.961C202.132 187.609 201.668 187.118 201.327 186.489C200.996 185.86 200.831 185.124 200.831 184.281C200.831 183.428 200.996 182.692 201.327 182.073C201.657 181.444 202.116 180.953 202.703 180.601C203.3 180.249 203.983 180.073 204.751 180.073C205.54 180.073 206.212 180.249 206.767 180.601C207.321 180.953 207.743 181.412 208.031 181.977C208.329 182.542 208.479 183.166 208.479 183.849C208.479 183.956 208.479 184.068 208.479 184.185C208.479 184.302 208.473 184.436 208.463 184.585H201.839V183.545H207.151C207.119 182.809 206.873 182.238 206.415 181.833C205.967 181.417 205.401 181.209 204.719 181.209C204.271 181.209 203.849 181.316 203.455 181.529C203.06 181.732 202.74 182.03 202.495 182.425C202.26 182.82 202.143 183.316 202.143 183.913V184.361C202.143 185.022 202.265 185.577 202.511 186.025C202.756 186.462 203.071 186.793 203.455 187.017C203.849 187.241 204.271 187.353 204.719 187.353C205.284 187.353 205.748 187.23 206.111 186.985C206.484 186.729 206.756 186.382 206.927 185.945H208.255C208.116 186.436 207.887 186.873 207.567 187.257C207.247 187.63 206.847 187.929 206.367 188.153C205.897 188.377 205.348 188.489 204.719 188.489ZM215.39 191.817L217.358 187.401H216.894L213.742 180.265H215.198L217.822 186.393L220.59 180.265H221.982L216.798 191.817H215.39ZM226.267 188.489C225.52 188.489 224.848 188.318 224.251 187.977C223.654 187.625 223.179 187.134 222.827 186.505C222.486 185.876 222.315 185.134 222.315 184.281C222.315 183.428 222.491 182.686 222.843 182.057C223.195 181.428 223.67 180.942 224.267 180.601C224.875 180.249 225.552 180.073 226.299 180.073C227.056 180.073 227.734 180.249 228.331 180.601C228.928 180.942 229.398 181.428 229.739 182.057C230.08 182.686 230.251 183.428 230.251 184.281C230.251 185.134 230.075 185.876 229.723 186.505C229.382 187.134 228.907 187.625 228.299 187.977C227.702 188.318 227.024 188.489 226.267 188.489ZM226.267 187.337C226.736 187.337 227.168 187.225 227.563 187.001C227.958 186.766 228.272 186.425 228.507 185.977C228.752 185.518 228.875 184.953 228.875 184.281C228.875 183.598 228.758 183.033 228.523 182.585C228.288 182.137 227.974 181.801 227.579 181.577C227.184 181.342 226.758 181.225 226.299 181.225C225.851 181.225 225.424 181.342 225.019 181.577C224.624 181.801 224.304 182.137 224.059 182.585C223.814 183.033 223.691 183.598 223.691 184.281C223.691 184.953 223.814 185.518 224.059 185.977C224.304 186.425 224.619 186.766 225.003 187.001C225.398 187.225 225.819 187.337 226.267 187.337ZM235.063 188.489C234.445 188.489 233.901 188.366 233.431 188.121C232.973 187.876 232.615 187.497 232.359 186.985C232.114 186.473 231.991 185.828 231.991 185.049V180.265H233.335V184.905C233.335 185.716 233.511 186.324 233.863 186.729C234.215 187.134 234.717 187.337 235.367 187.337C235.815 187.337 236.221 187.23 236.583 187.017C236.946 186.793 237.229 186.473 237.431 186.057C237.645 185.641 237.751 185.134 237.751 184.537V180.265H239.095V188.297H237.879L237.799 186.889C237.543 187.39 237.175 187.785 236.695 188.073C236.215 188.35 235.671 188.489 235.063 188.489ZM241.307 188.297V180.265H242.523L242.635 181.801C242.816 181.438 243.046 181.129 243.323 180.873C243.611 180.617 243.952 180.42 244.347 180.281C244.742 180.142 245.19 180.073 245.691 180.073V181.481H245.227C244.886 181.481 244.56 181.529 244.251 181.625C243.942 181.71 243.664 181.854 243.419 182.057C243.184 182.249 242.998 182.521 242.859 182.873C242.72 183.225 242.651 183.657 242.651 184.169V188.297H241.307ZM255 188.489C254.253 188.489 253.586 188.313 253 187.961C252.413 187.609 251.949 187.118 251.608 186.489C251.277 185.86 251.112 185.124 251.112 184.281C251.112 183.428 251.277 182.692 251.608 182.073C251.938 181.444 252.397 180.953 252.984 180.601C253.581 180.249 254.264 180.073 255.032 180.073C255.821 180.073 256.493 180.249 257.048 180.601C257.602 180.953 258.024 181.412 258.312 181.977C258.61 182.542 258.76 183.166 258.76 183.849C258.76 183.956 258.76 184.068 258.76 184.185C258.76 184.302 258.754 184.436 258.744 184.585H252.12V183.545H257.432C257.4 182.809 257.154 182.238 256.696 181.833C256.248 181.417 255.682 181.209 255 181.209C254.552 181.209 254.13 181.316 253.736 181.529C253.341 181.732 253.021 182.03 252.776 182.425C252.541 182.82 252.424 183.316 252.424 183.913V184.361C252.424 185.022 252.546 185.577 252.792 186.025C253.037 186.462 253.352 186.793 253.736 187.017C254.13 187.241 254.552 187.353 255 187.353C255.565 187.353 256.029 187.23 256.392 186.985C256.765 186.729 257.037 186.382 257.208 185.945H258.536C258.397 186.436 258.168 186.873 257.848 187.257C257.528 187.63 257.128 187.929 256.648 188.153C256.178 188.377 255.629 188.489 255 188.489ZM264.126 188.489C263.347 188.489 262.659 188.308 262.062 187.945C261.475 187.572 261.016 187.07 260.686 186.441C260.366 185.801 260.206 185.076 260.206 184.265C260.206 183.454 260.366 182.734 260.686 182.105C261.016 181.476 261.475 180.98 262.062 180.617C262.659 180.254 263.352 180.073 264.141 180.073C264.792 180.073 265.368 180.206 265.87 180.473C266.371 180.74 266.755 181.113 267.022 181.593V176.777H268.366V188.297H267.15L267.022 186.985C266.851 187.241 266.632 187.486 266.366 187.721C266.11 187.945 265.795 188.132 265.422 188.281C265.048 188.42 264.616 188.489 264.126 188.489ZM264.27 187.321C264.803 187.321 265.272 187.198 265.678 186.953C266.094 186.697 266.414 186.34 266.638 185.881C266.862 185.422 266.974 184.889 266.974 184.281C266.974 183.673 266.862 183.14 266.638 182.681C266.414 182.222 266.094 181.87 265.678 181.625C265.272 181.369 264.803 181.241 264.27 181.241C263.758 181.241 263.294 181.369 262.878 181.625C262.472 181.87 262.152 182.222 261.918 182.681C261.694 183.14 261.582 183.673 261.582 184.281C261.582 184.889 261.694 185.422 261.918 185.881C262.152 186.34 262.472 186.697 262.878 186.953C263.294 187.198 263.758 187.321 264.27 187.321ZM270.717 188.297V180.265H272.061V188.297H270.717ZM271.389 178.537C271.122 178.537 270.898 178.452 270.717 178.281C270.546 178.1 270.461 177.876 270.461 177.609C270.461 177.342 270.546 177.129 270.717 176.969C270.898 176.798 271.122 176.713 271.389 176.713C271.645 176.713 271.863 176.798 272.045 176.969C272.226 177.129 272.317 177.342 272.317 177.609C272.317 177.876 272.226 178.1 272.045 178.281C271.863 178.452 271.645 178.537 271.389 178.537ZM277.569 188.297C277.089 188.297 276.673 188.222 276.321 188.073C275.969 187.924 275.697 187.673 275.505 187.321C275.324 186.958 275.233 186.473 275.233 185.865V181.401H273.841V180.265H275.233L275.409 178.329H276.577V180.265H278.929V181.401H276.577V185.865C276.577 186.366 276.678 186.708 276.881 186.889C277.084 187.06 277.441 187.145 277.953 187.145H278.817V188.297H277.569ZM281.131 188.377C280.864 188.377 280.64 188.292 280.459 188.121C280.288 187.94 280.203 187.721 280.203 187.465C280.203 187.209 280.288 186.996 280.459 186.825C280.64 186.644 280.864 186.553 281.131 186.553C281.398 186.553 281.616 186.644 281.787 186.825C281.958 186.996 282.043 187.209 282.043 187.465C282.043 187.721 281.958 187.94 281.787 188.121C281.616 188.292 281.398 188.377 281.131 188.377ZM284.303 188.377C284.036 188.377 283.812 188.292 283.631 188.121C283.46 187.94 283.375 187.721 283.375 187.465C283.375 187.209 283.46 186.996 283.631 186.825C283.812 186.644 284.036 186.553 284.303 186.553C284.569 186.553 284.788 186.644 284.959 186.825C285.129 186.996 285.215 187.209 285.215 187.465C285.215 187.721 285.129 187.94 284.959 188.121C284.788 188.292 284.569 188.377 284.303 188.377ZM287.475 188.377C287.208 188.377 286.984 188.292 286.803 188.121C286.632 187.94 286.547 187.721 286.547 187.465C286.547 187.209 286.632 186.996 286.803 186.825C286.984 186.644 287.208 186.553 287.475 186.553C287.741 186.553 287.96 186.644 288.131 186.825C288.301 186.996 288.387 187.209 288.387 187.465C288.387 187.721 288.301 187.94 288.131 188.121C287.96 188.292 287.741 188.377 287.475 188.377ZM297.281 190.617C296.705 190.062 296.171 189.401 295.681 188.633C295.19 187.876 294.795 187.022 294.497 186.073C294.209 185.124 294.065 184.089 294.065 182.969C294.065 181.849 294.209 180.814 294.497 179.865C294.795 178.916 295.19 178.057 295.681 177.289C296.171 176.521 296.705 175.865 297.281 175.321H298.657V175.449C298.006 176.089 297.435 176.804 296.945 177.593C296.465 178.382 296.086 179.23 295.809 180.137C295.542 181.033 295.409 181.977 295.409 182.969C295.409 183.961 295.542 184.91 295.809 185.817C296.086 186.713 296.47 187.556 296.961 188.345C297.451 189.134 298.017 189.849 298.657 190.489V190.617H297.281ZM303.265 188.489C302.519 188.489 301.852 188.313 301.265 187.961C300.679 187.609 300.215 187.118 299.873 186.489C299.543 185.86 299.377 185.124 299.377 184.281C299.377 183.428 299.543 182.692 299.873 182.073C300.204 181.444 300.663 180.953 301.249 180.601C301.847 180.249 302.529 180.073 303.297 180.073C304.087 180.073 304.759 180.249 305.313 180.601C305.868 180.953 306.289 181.412 306.577 181.977C306.876 182.542 307.025 183.166 307.025 183.849C307.025 183.956 307.025 184.068 307.025 184.185C307.025 184.302 307.02 184.436 307.009 184.585H300.385V183.545H305.697C305.665 182.809 305.42 182.238 304.961 181.833C304.513 181.417 303.948 181.209 303.265 181.209C302.817 181.209 302.396 181.316 302.001 181.529C301.607 181.732 301.287 182.03 301.041 182.425C300.807 182.82 300.689 183.316 300.689 183.913V184.361C300.689 185.022 300.812 185.577 301.057 186.025C301.303 186.462 301.617 186.793 302.001 187.017C302.396 187.241 302.817 187.353 303.265 187.353C303.831 187.353 304.295 187.23 304.657 186.985C305.031 186.729 305.303 186.382 305.473 185.945H306.801C306.663 186.436 306.433 186.873 306.113 187.257C305.793 187.63 305.393 187.929 304.913 188.153C304.444 188.377 303.895 188.489 303.265 188.489ZM309.287 188.377C309.02 188.377 308.796 188.292 308.615 188.121C308.444 187.94 308.359 187.721 308.359 187.465C308.359 187.209 308.444 186.996 308.615 186.825C308.796 186.644 309.02 186.553 309.287 186.553C309.554 186.553 309.772 186.644 309.943 186.825C310.114 186.996 310.199 187.209 310.199 187.465C310.199 187.721 310.114 187.94 309.943 188.121C309.772 188.292 309.554 188.377 309.287 188.377ZM315.163 192.009C314.438 192.009 313.798 191.913 313.243 191.721C312.688 191.54 312.256 191.257 311.947 190.873C311.638 190.489 311.483 190.014 311.483 189.449C311.483 189.204 311.531 188.942 311.627 188.665C311.734 188.398 311.91 188.132 312.155 187.865C312.411 187.598 312.768 187.358 313.227 187.145L314.139 187.689C313.584 187.924 313.222 188.19 313.051 188.489C312.88 188.788 312.795 189.065 312.795 189.321C312.795 189.673 312.896 189.966 313.099 190.201C313.302 190.436 313.579 190.612 313.931 190.729C314.294 190.846 314.704 190.905 315.163 190.905C315.622 190.905 316.016 190.836 316.347 190.697C316.678 190.569 316.934 190.388 317.115 190.153C317.296 189.929 317.387 189.657 317.387 189.337C317.387 188.974 317.248 188.665 316.971 188.409C316.694 188.164 316.171 188.02 315.403 187.977C314.763 187.934 314.23 187.876 313.803 187.801C313.387 187.726 313.04 187.641 312.763 187.545C312.486 187.438 312.251 187.321 312.059 187.193C311.878 187.065 311.712 186.932 311.563 186.793V186.425L313.115 184.873L314.283 185.289L312.683 186.745L312.891 186.185C313.008 186.27 313.12 186.35 313.227 186.425C313.334 186.489 313.478 186.548 313.659 186.601C313.84 186.654 314.091 186.708 314.411 186.761C314.731 186.804 315.163 186.846 315.707 186.889C316.432 186.942 317.014 187.07 317.451 187.273C317.899 187.476 318.219 187.748 318.411 188.089C318.614 188.43 318.715 188.83 318.715 189.289C318.715 189.748 318.587 190.18 318.331 190.585C318.086 191.001 317.702 191.342 317.179 191.609C316.656 191.876 315.984 192.009 315.163 192.009ZM315.147 185.769C314.475 185.769 313.904 185.646 313.435 185.401C312.966 185.145 312.608 184.804 312.363 184.377C312.118 183.94 311.995 183.454 311.995 182.921C311.995 182.388 312.118 181.908 312.363 181.481C312.608 181.054 312.966 180.713 313.435 180.457C313.904 180.201 314.475 180.073 315.147 180.073C315.83 180.073 316.406 180.201 316.875 180.457C317.344 180.713 317.702 181.054 317.947 181.481C318.192 181.908 318.315 182.388 318.315 182.921C318.315 183.454 318.192 183.94 317.947 184.377C317.702 184.804 317.344 185.145 316.875 185.401C316.406 185.646 315.83 185.769 315.147 185.769ZM315.147 184.665C315.723 184.665 316.176 184.521 316.507 184.233C316.848 183.934 317.019 183.497 317.019 182.921C317.019 182.366 316.848 181.94 316.507 181.641C316.176 181.342 315.723 181.193 315.147 181.193C314.582 181.193 314.128 181.342 313.787 181.641C313.446 181.94 313.275 182.366 313.275 182.921C313.275 183.497 313.446 183.934 313.787 184.233C314.128 184.521 314.582 184.665 315.147 184.665ZM316.459 181.401L316.059 180.265H319.355V181.273L316.459 181.401ZM321.365 188.377C321.099 188.377 320.875 188.292 320.693 188.121C320.523 187.94 320.437 187.721 320.437 187.465C320.437 187.209 320.523 186.996 320.693 186.825C320.875 186.644 321.099 186.553 321.365 186.553C321.632 186.553 321.851 186.644 322.021 186.825C322.192 186.996 322.277 187.209 322.277 187.465C322.277 187.721 322.192 187.94 322.021 188.121C321.851 188.292 321.632 188.377 321.365 188.377ZM323.017 190.265L323.945 186.729H325.337L323.945 190.265H323.017ZM330.91 179.465L330.702 176.217H332.03L331.838 179.465H330.91ZM333.729 188.297V180.265H334.945L335.041 181.417C335.297 180.99 335.638 180.66 336.065 180.425C336.492 180.19 336.966 180.073 337.489 180.073C337.905 180.073 338.284 180.132 338.625 180.249C338.966 180.356 339.265 180.526 339.521 180.761C339.777 180.985 339.985 181.273 340.145 181.625C340.422 181.134 340.801 180.756 341.281 180.489C341.772 180.212 342.294 180.073 342.849 180.073C343.468 180.073 344.006 180.201 344.465 180.457C344.934 180.702 345.297 181.081 345.553 181.593C345.809 182.094 345.937 182.734 345.937 183.513V188.297H344.609V183.657C344.609 182.846 344.444 182.238 344.113 181.833C343.782 181.428 343.313 181.225 342.705 181.225C342.289 181.225 341.91 181.337 341.569 181.561C341.238 181.774 340.977 182.089 340.785 182.505C340.604 182.921 340.513 183.433 340.513 184.041V188.297H339.169V183.657C339.169 182.846 339.004 182.238 338.673 181.833C338.342 181.428 337.873 181.225 337.265 181.225C336.86 181.225 336.486 181.337 336.145 181.561C335.814 181.774 335.553 182.089 335.361 182.505C335.169 182.921 335.073 183.433 335.073 184.041V188.297H333.729ZM350.635 188.489C349.984 188.489 349.44 188.377 349.003 188.153C348.565 187.918 348.24 187.614 348.027 187.241C347.813 186.857 347.707 186.446 347.707 186.009C347.707 185.465 347.845 185.006 348.123 184.633C348.411 184.249 348.811 183.961 349.323 183.769C349.845 183.566 350.453 183.465 351.147 183.465H353.291C353.291 182.964 353.211 182.548 353.051 182.217C352.901 181.886 352.677 181.636 352.379 181.465C352.08 181.294 351.717 181.209 351.291 181.209C350.779 181.209 350.336 181.337 349.963 181.593C349.589 181.849 349.36 182.228 349.275 182.729H347.899C347.963 182.153 348.155 181.673 348.475 181.289C348.805 180.894 349.221 180.596 349.723 180.393C350.224 180.18 350.747 180.073 351.291 180.073C352.037 180.073 352.656 180.212 353.147 180.489C353.637 180.756 354.005 181.134 354.251 181.625C354.507 182.105 354.635 182.67 354.635 183.321V188.297H353.435L353.355 186.873C353.248 187.097 353.109 187.31 352.939 187.513C352.779 187.705 352.587 187.876 352.363 188.025C352.149 188.164 351.899 188.276 351.611 188.361C351.323 188.446 350.997 188.489 350.635 188.489ZM350.843 187.353C351.216 187.353 351.552 187.278 351.851 187.129C352.16 186.969 352.421 186.756 352.635 186.489C352.848 186.222 353.008 185.924 353.115 185.593C353.232 185.252 353.291 184.905 353.291 184.553V184.505H351.259C350.747 184.505 350.331 184.569 350.011 184.697C349.691 184.814 349.461 184.985 349.323 185.209C349.184 185.422 349.115 185.668 349.115 185.945C349.115 186.233 349.179 186.484 349.307 186.697C349.445 186.9 349.643 187.06 349.899 187.177C350.155 187.294 350.469 187.353 350.843 187.353ZM361.674 188.297L357.818 183.897L361.322 180.265H362.97L358.954 184.377L358.97 183.417L363.386 188.297H361.674ZM356.698 188.297V176.777H358.042V188.297H356.698ZM367.734 188.489C366.987 188.489 366.321 188.313 365.734 187.961C365.147 187.609 364.683 187.118 364.342 186.489C364.011 185.86 363.846 185.124 363.846 184.281C363.846 183.428 364.011 182.692 364.342 182.073C364.673 181.444 365.131 180.953 365.718 180.601C366.315 180.249 366.998 180.073 367.766 180.073C368.555 180.073 369.227 180.249 369.782 180.601C370.337 180.953 370.758 181.412 371.046 181.977C371.345 182.542 371.494 183.166 371.494 183.849C371.494 183.956 371.494 184.068 371.494 184.185C371.494 184.302 371.489 184.436 371.478 184.585H364.854V183.545H370.166C370.134 182.809 369.889 182.238 369.43 181.833C368.982 181.417 368.417 181.209 367.734 181.209C367.286 181.209 366.865 181.316 366.47 181.529C366.075 181.732 365.755 182.03 365.51 182.425C365.275 182.82 365.158 183.316 365.158 183.913V184.361C365.158 185.022 365.281 185.577 365.526 186.025C365.771 186.462 366.086 186.793 366.47 187.017C366.865 187.241 367.286 187.353 367.734 187.353C368.299 187.353 368.763 187.23 369.126 186.985C369.499 186.729 369.771 186.382 369.942 185.945H371.27C371.131 186.436 370.902 186.873 370.582 187.257C370.262 187.63 369.862 187.929 369.382 188.153C368.913 188.377 368.363 188.489 367.734 188.489ZM380.694 188.297C380.214 188.297 379.798 188.222 379.446 188.073C379.094 187.924 378.822 187.673 378.63 187.321C378.449 186.958 378.358 186.473 378.358 185.865V181.401H376.966V180.265H378.358L378.534 178.329H379.702V180.265H382.054V181.401H379.702V185.865C379.702 186.366 379.803 186.708 380.006 186.889C380.209 187.06 380.566 187.145 381.078 187.145H381.942V188.297H380.694ZM383.776 188.297V176.777H385.12V181.625C385.397 181.134 385.776 180.756 386.256 180.489C386.736 180.212 387.269 180.073 387.856 180.073C388.475 180.073 389.008 180.201 389.456 180.457C389.915 180.702 390.267 181.081 390.512 181.593C390.768 182.105 390.896 182.75 390.896 183.529V188.297H389.568V183.673C389.568 182.862 389.397 182.254 389.056 181.849C388.715 181.433 388.219 181.225 387.568 181.225C387.109 181.225 386.693 181.337 386.32 181.561C385.957 181.774 385.664 182.094 385.44 182.521C385.227 182.937 385.12 183.449 385.12 184.057V188.297H383.776ZM396.515 188.489C395.769 188.489 395.102 188.313 394.515 187.961C393.929 187.609 393.465 187.118 393.123 186.489C392.793 185.86 392.627 185.124 392.627 184.281C392.627 183.428 392.793 182.692 393.123 182.073C393.454 181.444 393.913 180.953 394.499 180.601C395.097 180.249 395.779 180.073 396.547 180.073C397.337 180.073 398.009 180.249 398.563 180.601C399.118 180.953 399.539 181.412 399.827 181.977C400.126 182.542 400.275 183.166 400.275 183.849C400.275 183.956 400.275 184.068 400.275 184.185C400.275 184.302 400.27 184.436 400.259 184.585H393.635V183.545H398.947C398.915 182.809 398.67 182.238 398.211 181.833C397.763 181.417 397.198 181.209 396.515 181.209C396.067 181.209 395.646 181.316 395.251 181.529C394.857 181.732 394.537 182.03 394.291 182.425C394.057 182.82 393.939 183.316 393.939 183.913V184.361C393.939 185.022 394.062 185.577 394.307 186.025C394.553 186.462 394.867 186.793 395.251 187.017C395.646 187.241 396.067 187.353 396.515 187.353C397.081 187.353 397.545 187.23 397.907 186.985C398.281 186.729 398.553 186.382 398.723 185.945H400.051C399.913 186.436 399.683 186.873 399.363 187.257C399.043 187.63 398.643 187.929 398.163 188.153C397.694 188.377 397.145 188.489 396.515 188.489ZM406.307 188.297V180.265H407.523L407.619 181.417C407.875 180.99 408.216 180.66 408.643 180.425C409.07 180.19 409.544 180.073 410.067 180.073C410.483 180.073 410.862 180.132 411.203 180.249C411.544 180.356 411.843 180.526 412.099 180.761C412.355 180.985 412.563 181.273 412.723 181.625C413 181.134 413.379 180.756 413.859 180.489C414.35 180.212 414.872 180.073 415.427 180.073C416.046 180.073 416.584 180.201 417.043 180.457C417.512 180.702 417.875 181.081 418.131 181.593C418.387 182.094 418.515 182.734 418.515 183.513V188.297H417.187V183.657C417.187 182.846 417.022 182.238 416.691 181.833C416.36 181.428 415.891 181.225 415.283 181.225C414.867 181.225 414.488 181.337 414.147 181.561C413.816 181.774 413.555 182.089 413.363 182.505C413.182 182.921 413.091 183.433 413.091 184.041V188.297H411.747V183.657C411.747 182.846 411.582 182.238 411.251 181.833C410.92 181.428 410.451 181.225 409.843 181.225C409.438 181.225 409.064 181.337 408.723 181.561C408.392 181.774 408.131 182.089 407.939 182.505C407.747 182.921 407.651 183.433 407.651 184.041V188.297H406.307ZM424.125 188.489C423.378 188.489 422.711 188.313 422.125 187.961C421.538 187.609 421.074 187.118 420.733 186.489C420.402 185.86 420.237 185.124 420.237 184.281C420.237 183.428 420.402 182.692 420.733 182.073C421.063 181.444 421.522 180.953 422.109 180.601C422.706 180.249 423.389 180.073 424.157 180.073C424.946 180.073 425.618 180.249 426.173 180.601C426.727 180.953 427.149 181.412 427.437 181.977C427.735 182.542 427.885 183.166 427.885 183.849C427.885 183.956 427.885 184.068 427.885 184.185C427.885 184.302 427.879 184.436 427.869 184.585H421.245V183.545H426.557C426.525 182.809 426.279 182.238 425.821 181.833C425.373 181.417 424.807 181.209 424.125 181.209C423.677 181.209 423.255 181.316 422.861 181.529C422.466 181.732 422.146 182.03 421.901 182.425C421.666 182.82 421.549 183.316 421.549 183.913V184.361C421.549 185.022 421.671 185.577 421.917 186.025C422.162 186.462 422.477 186.793 422.861 187.017C423.255 187.241 423.677 187.353 424.125 187.353C424.69 187.353 425.154 187.23 425.517 186.985C425.89 186.729 426.162 186.382 426.333 185.945H427.661C427.522 186.436 427.293 186.873 426.973 187.257C426.653 187.63 426.253 187.929 425.773 188.153C425.303 188.377 424.754 188.489 424.125 188.489ZM429.667 188.297V176.777H431.011V188.297H429.667ZM436.845 188.489C436.098 188.489 435.426 188.318 434.829 187.977C434.232 187.625 433.757 187.134 433.405 186.505C433.064 185.876 432.893 185.134 432.893 184.281C432.893 183.428 433.069 182.686 433.421 182.057C433.773 181.428 434.248 180.942 434.845 180.601C435.453 180.249 436.13 180.073 436.877 180.073C437.634 180.073 438.312 180.249 438.909 180.601C439.506 180.942 439.976 181.428 440.317 182.057C440.658 182.686 440.829 183.428 440.829 184.281C440.829 185.134 440.653 185.876 440.301 186.505C439.96 187.134 439.485 187.625 438.877 187.977C438.28 188.318 437.602 188.489 436.845 188.489ZM436.845 187.337C437.314 187.337 437.746 187.225 438.141 187.001C438.536 186.766 438.85 186.425 439.085 185.977C439.33 185.518 439.453 184.953 439.453 184.281C439.453 183.598 439.336 183.033 439.101 182.585C438.866 182.137 438.552 181.801 438.157 181.577C437.762 181.342 437.336 181.225 436.877 181.225C436.429 181.225 436.002 181.342 435.597 181.577C435.202 181.801 434.882 182.137 434.637 182.585C434.392 183.033 434.269 183.598 434.269 184.281C434.269 184.953 434.392 185.518 434.637 185.977C434.882 186.425 435.197 186.766 435.581 187.001C435.976 187.225 436.397 187.337 436.845 187.337ZM446.297 188.489C445.519 188.489 444.831 188.308 444.233 187.945C443.647 187.572 443.188 187.07 442.857 186.441C442.537 185.801 442.377 185.076 442.377 184.265C442.377 183.454 442.537 182.734 442.857 182.105C443.188 181.476 443.647 180.98 444.233 180.617C444.831 180.254 445.524 180.073 446.313 180.073C446.964 180.073 447.54 180.206 448.041 180.473C448.543 180.74 448.927 181.113 449.193 181.593V176.777H450.537V188.297H449.321L449.193 186.985C449.023 187.241 448.804 187.486 448.537 187.721C448.281 187.945 447.967 188.132 447.593 188.281C447.22 188.42 446.788 188.489 446.297 188.489ZM446.441 187.321C446.975 187.321 447.444 187.198 447.849 186.953C448.265 186.697 448.585 186.34 448.809 185.881C449.033 185.422 449.145 184.889 449.145 184.281C449.145 183.673 449.033 183.14 448.809 182.681C448.585 182.222 448.265 181.87 447.849 181.625C447.444 181.369 446.975 181.241 446.441 181.241C445.929 181.241 445.465 181.369 445.049 181.625C444.644 181.87 444.324 182.222 444.089 182.681C443.865 183.14 443.753 183.673 443.753 184.281C443.753 184.889 443.865 185.422 444.089 185.881C444.324 186.34 444.644 186.697 445.049 186.953C445.465 187.198 445.929 187.321 446.441 187.321ZM453.625 191.817L455.593 187.401H455.129L451.977 180.265H453.433L456.057 186.393L458.825 180.265H460.217L455.033 191.817H453.625ZM465.885 188.297V176.777H467.229V181.625C467.507 181.134 467.885 180.756 468.365 180.489C468.845 180.212 469.379 180.073 469.965 180.073C470.584 180.073 471.117 180.201 471.565 180.457C472.024 180.702 472.376 181.081 472.621 181.593C472.877 182.105 473.005 182.75 473.005 183.529V188.297H471.677V183.673C471.677 182.862 471.507 182.254 471.165 181.849C470.824 181.433 470.328 181.225 469.677 181.225C469.219 181.225 468.803 181.337 468.429 181.561C468.067 181.774 467.773 182.094 467.549 182.521C467.336 182.937 467.229 183.449 467.229 184.057V188.297H465.885ZM477.713 188.489C477.062 188.489 476.518 188.377 476.081 188.153C475.643 187.918 475.318 187.614 475.105 187.241C474.891 186.857 474.785 186.446 474.785 186.009C474.785 185.465 474.923 185.006 475.201 184.633C475.489 184.249 475.889 183.961 476.401 183.769C476.923 183.566 477.531 183.465 478.225 183.465H480.369C480.369 182.964 480.289 182.548 480.129 182.217C479.979 181.886 479.755 181.636 479.457 181.465C479.158 181.294 478.795 181.209 478.369 181.209C477.857 181.209 477.414 181.337 477.041 181.593C476.667 181.849 476.438 182.228 476.353 182.729H474.977C475.041 182.153 475.233 181.673 475.553 181.289C475.883 180.894 476.299 180.596 476.801 180.393C477.302 180.18 477.825 180.073 478.369 180.073C479.115 180.073 479.734 180.212 480.225 180.489C480.715 180.756 481.083 181.134 481.329 181.625C481.585 182.105 481.713 182.67 481.713 183.321V188.297H480.513L480.433 186.873C480.326 187.097 480.187 187.31 480.017 187.513C479.857 187.705 479.665 187.876 479.441 188.025C479.227 188.164 478.977 188.276 478.689 188.361C478.401 188.446 478.075 188.489 477.713 188.489ZM477.921 187.353C478.294 187.353 478.63 187.278 478.929 187.129C479.238 186.969 479.499 186.756 479.713 186.489C479.926 186.222 480.086 185.924 480.193 185.593C480.31 185.252 480.369 184.905 480.369 184.553V184.505H478.337C477.825 184.505 477.409 184.569 477.089 184.697C476.769 184.814 476.539 184.985 476.401 185.209C476.262 185.422 476.193 185.668 476.193 185.945C476.193 186.233 476.257 186.484 476.385 186.697C476.523 186.9 476.721 187.06 476.977 187.177C477.233 187.294 477.547 187.353 477.921 187.353ZM483.776 191.817V180.265H484.992L485.12 181.577C485.291 181.321 485.509 181.081 485.776 180.857C486.043 180.622 486.363 180.436 486.736 180.297C487.109 180.148 487.541 180.073 488.032 180.073C488.811 180.073 489.488 180.26 490.064 180.633C490.651 180.996 491.104 181.497 491.424 182.137C491.755 182.766 491.92 183.486 491.92 184.297C491.92 185.108 491.755 185.828 491.424 186.457C491.104 187.086 490.651 187.582 490.064 187.945C489.477 188.308 488.795 188.489 488.016 188.489C487.365 188.489 486.789 188.356 486.288 188.089C485.787 187.822 485.397 187.449 485.12 186.969V191.817H483.776ZM487.856 187.321C488.389 187.321 488.859 187.198 489.264 186.953C489.669 186.697 489.984 186.34 490.208 185.881C490.443 185.422 490.56 184.889 490.56 184.281C490.56 183.673 490.443 183.14 490.208 182.681C489.984 182.222 489.669 181.87 489.264 181.625C488.859 181.369 488.389 181.241 487.856 181.241C487.323 181.241 486.853 181.369 486.448 181.625C486.043 181.87 485.728 182.222 485.504 182.681C485.28 183.14 485.168 183.673 485.168 184.281C485.168 184.889 485.28 185.422 485.504 185.881C485.728 186.34 486.043 186.697 486.448 186.953C486.853 187.198 487.323 187.321 487.856 187.321ZM493.807 191.817V180.265H495.023L495.151 181.577C495.322 181.321 495.54 181.081 495.807 180.857C496.074 180.622 496.394 180.436 496.767 180.297C497.14 180.148 497.572 180.073 498.063 180.073C498.842 180.073 499.519 180.26 500.095 180.633C500.682 180.996 501.135 181.497 501.455 182.137C501.786 182.766 501.951 183.486 501.951 184.297C501.951 185.108 501.786 185.828 501.455 186.457C501.135 187.086 500.682 187.582 500.095 187.945C499.508 188.308 498.826 188.489 498.047 188.489C497.396 188.489 496.82 188.356 496.319 188.089C495.818 187.822 495.428 187.449 495.151 186.969V191.817H493.807ZM497.887 187.321C498.42 187.321 498.89 187.198 499.295 186.953C499.7 186.697 500.015 186.34 500.239 185.881C500.474 185.422 500.591 184.889 500.591 184.281C500.591 183.673 500.474 183.14 500.239 182.681C500.015 182.222 499.7 181.87 499.295 181.625C498.89 181.369 498.42 181.241 497.887 181.241C497.354 181.241 496.884 181.369 496.479 181.625C496.074 181.87 495.759 182.222 495.535 182.681C495.311 183.14 495.199 183.673 495.199 184.281C495.199 184.889 495.311 185.422 495.535 185.881C495.759 186.34 496.074 186.697 496.479 186.953C496.884 187.198 497.354 187.321 497.887 187.321ZM503.982 188.297V180.265H505.326V188.297H503.982ZM504.654 178.537C504.388 178.537 504.164 178.452 503.982 178.281C503.812 178.1 503.726 177.876 503.726 177.609C503.726 177.342 503.812 177.129 503.982 176.969C504.164 176.798 504.388 176.713 504.654 176.713C504.91 176.713 505.129 176.798 505.31 176.969C505.492 177.129 505.582 177.342 505.582 177.609C505.582 177.876 505.492 178.1 505.31 178.281C505.129 178.452 504.91 178.537 504.654 178.537ZM511.219 188.489C510.472 188.489 509.805 188.313 509.219 187.961C508.632 187.609 508.168 187.118 507.827 186.489C507.496 185.86 507.331 185.124 507.331 184.281C507.331 183.428 507.496 182.692 507.827 182.073C508.157 181.444 508.616 180.953 509.203 180.601C509.8 180.249 510.483 180.073 511.251 180.073C512.04 180.073 512.712 180.249 513.267 180.601C513.821 180.953 514.243 181.412 514.531 181.977C514.829 182.542 514.979 183.166 514.979 183.849C514.979 183.956 514.979 184.068 514.979 184.185C514.979 184.302 514.973 184.436 514.963 184.585H508.339V183.545H513.651C513.619 182.809 513.373 182.238 512.915 181.833C512.467 181.417 511.901 181.209 511.219 181.209C510.771 181.209 510.349 181.316 509.955 181.529C509.56 181.732 509.24 182.03 508.995 182.425C508.76 182.82 508.643 183.316 508.643 183.913V184.361C508.643 185.022 508.765 185.577 509.011 186.025C509.256 186.462 509.571 186.793 509.955 187.017C510.349 187.241 510.771 187.353 511.219 187.353C511.784 187.353 512.248 187.23 512.611 186.985C512.984 186.729 513.256 186.382 513.427 185.945H514.755C514.616 186.436 514.387 186.873 514.067 187.257C513.747 187.63 513.347 187.929 512.867 188.153C512.397 188.377 511.848 188.489 511.219 188.489ZM516.76 188.297V180.265H517.976L518.088 181.801C518.27 181.438 518.499 181.129 518.776 180.873C519.064 180.617 519.406 180.42 519.8 180.281C520.195 180.142 520.643 180.073 521.144 180.073V181.481H520.68C520.339 181.481 520.014 181.529 519.704 181.625C519.395 181.71 519.118 181.854 518.872 182.057C518.638 182.249 518.451 182.521 518.312 182.873C518.174 183.225 518.104 183.657 518.104 184.169V188.297H516.76ZM522.363 179.465L522.155 176.217H523.483L523.291 179.465H522.363ZM526.062 190.617H524.686V190.489C525.337 189.849 525.902 189.134 526.382 188.345C526.873 187.556 527.251 186.713 527.518 185.817C527.795 184.91 527.934 183.961 527.934 182.969C527.934 181.977 527.795 181.033 527.518 180.137C527.251 179.23 526.873 178.382 526.382 177.593C525.902 176.804 525.337 176.089 524.686 175.449V175.321H526.062C526.649 175.865 527.182 176.521 527.662 177.289C528.153 178.057 528.542 178.916 528.83 179.865C529.129 180.814 529.278 181.849 529.278 182.969C529.278 184.089 529.129 185.124 528.83 186.073C528.542 187.022 528.153 187.876 527.662 188.633C527.182 189.401 526.649 190.062 526.062 190.617Z" fill="#6B7280"/>
</g>
<path d="M135 157V158H271V157V156H135V157ZM283 169H282V196.594H283H284V169H283ZM271 208.594V207.594H135V208.594V209.594H271V208.594ZM123 196.594H124V169H123H122V196.594H123ZM135 208.594V207.594C128.925 207.594 124 202.669 124 196.594H123H122C122 203.773 127.82 209.594 135 209.594V208.594ZM283 196.594H282C282 202.669 277.075 207.594 271 207.594V208.594V209.594C278.18 209.594 284 203.773 284 196.594H283ZM271 157V158C277.075 158 282 162.925 282 169H283H284C284 161.82 278.18 156 271 156V157ZM135 157V156C127.82 156 122 161.82 122 169H123H124C124 162.925 128.925 158 135 158V157Z" fill="white" fill-opacity="0.1" mask="url(#path-24-inside-4_0_739)"/>
<g opacity="0.3">
<path d="M295 170C295 163.373 300.373 158 307 158H413C419.627 158 425 163.373 425 170V195.594C425 202.221 419.627 207.594 413 207.594H307C300.373 207.594 295 202.221 295 195.594V170Z" fill="url(#paint1_linear_0_739)"/>
<path d="M346.395 188V176.8H353.451V178.112H347.995V181.696H352.971V182.976H347.995V186.688H353.451V188H346.395ZM359.039 188.192C358.271 188.192 357.594 188.011 357.007 187.648C356.421 187.275 355.962 186.773 355.631 186.144C355.311 185.504 355.151 184.779 355.151 183.968C355.151 183.157 355.311 182.437 355.631 181.808C355.962 181.179 356.421 180.683 357.007 180.32C357.605 179.957 358.293 179.776 359.071 179.776C359.701 179.776 360.255 179.904 360.735 180.16C361.215 180.405 361.589 180.752 361.855 181.2V176.48H363.455V188H362.015L361.855 186.752C361.685 186.997 361.471 187.232 361.215 187.456C360.959 187.669 360.65 187.845 360.287 187.984C359.935 188.123 359.519 188.192 359.039 188.192ZM359.311 186.8C359.802 186.8 360.239 186.683 360.623 186.448C361.007 186.213 361.306 185.888 361.519 185.472C361.733 185.045 361.839 184.549 361.839 183.984C361.839 183.419 361.733 182.928 361.519 182.512C361.306 182.085 361.007 181.755 360.623 181.52C360.239 181.285 359.797 181.168 359.295 181.168C358.815 181.168 358.383 181.285 357.999 181.52C357.615 181.755 357.317 182.085 357.103 182.512C356.89 182.928 356.783 183.419 356.783 183.984C356.783 184.539 356.89 185.029 357.103 185.456C357.317 185.883 357.615 186.213 357.999 186.448C358.383 186.683 358.821 186.8 359.311 186.8ZM365.739 188V179.968H367.339V188H365.739ZM366.539 178.432C366.24 178.432 365.99 178.336 365.787 178.144C365.595 177.952 365.499 177.707 365.499 177.408C365.499 177.12 365.595 176.885 365.787 176.704C365.99 176.512 366.24 176.416 366.539 176.416C366.848 176.416 367.104 176.512 367.307 176.704C367.51 176.885 367.611 177.12 367.611 177.408C367.611 177.707 367.51 177.952 367.307 178.144C367.104 178.336 366.848 178.432 366.539 178.432ZM372.939 188C372.438 188 371.995 187.92 371.611 187.76C371.238 187.6 370.95 187.333 370.747 186.96C370.555 186.587 370.459 186.08 370.459 185.44V181.312H369.067V179.968H370.459L370.651 177.952H372.059V179.968H374.331V181.312H372.059V185.456C372.059 185.915 372.15 186.229 372.331 186.4C372.523 186.56 372.854 186.64 373.323 186.64H374.251V188H372.939Z" fill="white"/>
</g>
<path d="M448.5 424.7C449.163 424.7 449.7 424.163 449.7 423.5C449.7 422.837 449.163 422.3 448.5 422.3C447.837 422.3 447.3 422.837 447.3 423.5C447.3 424.163 447.837 424.7 448.5 424.7Z" fill="#4B5563"/>
<path d="M444.5 424.7C445.163 424.7 445.7 424.163 445.7 423.5C445.7 422.837 445.163 422.3 444.5 422.3C443.837 422.3 443.3 422.837 443.3 423.5C443.3 424.163 443.837 424.7 444.5 424.7Z" fill="#4B5563"/>
<path d="M448.5 420.7C449.163 420.7 449.7 420.163 449.7 419.5C449.7 418.837 449.163 418.3 448.5 418.3C447.837 418.3 447.3 418.837 447.3 419.5C447.3 420.163 447.837 420.7 448.5 420.7Z" fill="#4B5563"/>
</g>
<defs>
<filter id="filter0_d_0_739" x="0" y="0" width="496" height="496" filterUnits="userSpaceOnUse" color-interpolation-filters="sRGB">
<feFlood flood-opacity="0" result="BackgroundImageFix"/>
<feColorMatrix in="SourceAlpha" type="matrix" values="0 0 0 0 0 0 0 0 0 0 0 0 0 0 0 0 0 0 127 0" result="hardAlpha"/>
<feMorphology radius="12" operator="erode" in="SourceAlpha" result="effect1_dropShadow_0_739"/>
<feOffset dy="25"/>
<feGaussianBlur stdDeviation="25"/>
<feComposite in2="hardAlpha" operator="out"/>
<feColorMatrix type="matrix" values="0 0 0 0 0 0 0 0 0 0 0 0 0 0 0 0 0 0 0.25 0"/>
<feBlend mode="normal" in2="BackgroundImageFix" result="effect1_dropShadow_0_739"/>
<feBlend mode="normal" in="SourceGraphic" in2="effect1_dropShadow_0_739" result="shape"/>
</filter>
<filter id="filter1_dd_0_739" x="89.1797" y="77" width="317.641" height="74" filterUnits="userSpaceOnUse" color-interpolation-filters="sRGB">
<feFlood flood-opacity="0" result="BackgroundImageFix"/>
<feColorMatrix in="SourceAlpha" type="matrix" values="0 0 0 0 0 0 0 0 0 0 0 0 0 0 0 0 0 0 127 0" result="hardAlpha"/>
<feMorphology radius="4" operator="erode" in="SourceAlpha" result="effect1_dropShadow_0_739"/>
<feOffset dy="4"/>
<feGaussianBlur stdDeviation="3"/>
<feComposite in2="hardAlpha" operator="out"/>
<feColorMatrix type="matrix" values="0 0 0 0 0 0 0 0 0 0 0 0 0 0 0 0 0 0 0.1 0"/>
<feBlend mode="normal" in2="BackgroundImageFix" result="effect1_dropShadow_0_739"/>
<feColorMatrix in="SourceAlpha" type="matrix" values="0 0 0 0 0 0 0 0 0 0 0 0 0 0 0 0 0 0 127 0" result="hardAlpha"/>
<feMorphology radius="3" operator="erode" in="SourceAlpha" result="effect2_dropShadow_0_739"/>
<feOffset dy="10"/>
<feGaussianBlur stdDeviation="7.5"/>
<feComposite in2="hardAlpha" operator="out"/>
<feColorMatrix type="matrix" values="0 0 0 0 0 0 0 0 0 0 0 0 0 0 0 0 0 0 0.1 0"/>
<feBlend mode="normal" in2="effect1_dropShadow_0_739" result="effect2_dropShadow_0_739"/>
<feBlend mode="normal" in="SourceGraphic" in2="effect2_dropShadow_0_739" result="shape"/>
</filter>
<filter id="filter2_dd_0_739" x="94.1797" y="82" width="155.797" height="64" filterUnits="userSpaceOnUse" color-interpolation-filters="sRGB">
<feFlood flood-opacity="0" result="BackgroundImageFix"/>
<feColorMatrix in="SourceAlpha" type="matrix" values="0 0 0 0 0 0 0 0 0 0 0 0 0 0 0 0 0 0 127 0" result="hardAlpha"/>
<feMorphology radius="4" operator="erode" in="SourceAlpha" result="effect1_dropShadow_0_739"/>
<feOffset dy="4"/>
<feGaussianBlur stdDeviation="3"/>
<feComposite in2="hardAlpha" operator="out"/>
<feColorMatrix type="matrix" values="0 0 0 0 0.960784 0 0 0 0 0.619608 0 0 0 0 0.0431373 0 0 0 0.3 0"/>
<feBlend mode="normal" in2="BackgroundImageFix" result="effect1_dropShadow_0_739"/>
<feColorMatrix in="SourceAlpha" type="matrix" values="0 0 0 0 0 0 0 0 0 0 0 0 0 0 0 0 0 0 127 0" result="hardAlpha"/>
<feMorphology radius="3" operator="erode" in="SourceAlpha" result="effect2_dropShadow_0_739"/>
<feOffset dy="10"/>
<feGaussianBlur stdDeviation="7.5"/>
<feComposite in2="hardAlpha" operator="out"/>
<feColorMatrix type="matrix" values="0 0 0 0 0.960784 0 0 0 0 0.619608 0 0 0 0 0.0431373 0 0 0 0.3 0"/>
<feBlend mode="normal" in2="effect1_dropShadow_0_739" result="effect2_dropShadow_0_739"/>
<feBlend mode="normal" in="SourceGraphic" in2="effect2_dropShadow_0_739" result="shape"/>
</filter>
<linearGradient id="paint0_linear_0_739" x1="106.18" y1="104" x2="237.977" y2="104" gradientUnits="userSpaceOnUse">
<stop stop-color="#F59E0B"/>
<stop offset="1" stop-color="#F97316"/>
</linearGradient>
<linearGradient id="paint1_linear_0_739" x1="295" y1="182.797" x2="425" y2="182.797" gradientUnits="userSpaceOnUse">
<stop stop-color="#06B6D4"/>
<stop offset="1" stop-color="#A855F7"/>
</linearGradient>
<clipPath id="clip0_0_739">
<rect width="56.125" height="20" fill="white" transform="translate(79 28)"/>
</clipPath>
<clipPath id="clip1_0_739">
<path d="M101.18 91C101.18 84.3726 106.552 79 113.18 79H382.82C389.448 79 394.82 84.3726 394.82 91V117C394.82 123.627 389.448 129 382.82 129H113.18C106.552 129 101.18 123.627 101.18 117V91Z" fill="white"/>
</clipPath>
<clipPath id="clip2_0_739">
<path d="M123 169C123 162.373 128.373 157 135 157H271C277.627 157 283 162.373 283 169V196.594C283 203.221 277.627 208.594 271 208.594H135C128.373 208.594 123 203.221 123 196.594V169Z" fill="white"/>
</clipPath>
</defs>
</svg>
